<svg xmlns="http://www.w3.org/2000/svg" viewBox="0 0 100 100">
  <!-- Pizza base (pan) -->
  <circle cx="50" cy="50" r="48" fill="#696969"/>
  <!-- Crust -->
  <circle cx="50" cy="50" r="45" fill="#D4A017"/>
  <!-- Cheese -->
  <circle cx="50" cy="50" r="42" fill="#FFA600"/>
  
  <!-- Cheese texture -->
  <circle cx="30" cy="40" r="4" fill="#FFD700"/>
  <circle cx="60" cy="35" r="3" fill="#FFD700"/>
  <circle cx="45" cy="60" r="3.5" fill="#FFD700"/>
  <circle cx="70" cy="55" r="4" fill="#FFD700"/>
  
  <!-- Pepperoni -->
  <circle cx="35" cy="30" r="6" fill="#B22222"/>
  <circle cx="65" cy="40" r="6" fill="#B22222"/>
  <circle cx="40" cy="70" r="6" fill="#B22222"/>
  <circle cx="55" cy="50" r="6" fill="#B22222"/>
  
  <!-- Basil leaves -->
  <path d="M25 55 Q30 50 25 45 Q35 50 25 55" fill="#228B22"/>
  <path d="M75 35 Q80 30 75 25 Q85 30 75 35" fill="#228B22"/>
  <path d="M60 75 Q65 70 60 65 Q70 70 60 75" fill="#228B22"/>
  
  <!-- Oil drizzles -->
  <path d="M45 20 Q50 25 55 20" fill="none" stroke="#FFE5B4" stroke-width="1"/>
  <path d="M70 65 Q75 70 80 65" fill="none" stroke="#FFE5B4" stroke-width="1"/>
  <path d="M20 40 Q25 45 30 40" fill="none" stroke="#FFE5B4" stroke-width="1"/>
</svg>
